<svg width="420" height="61" viewBox="0 0 420 61" fill="none" xmlns="http://www.w3.org/2000/svg">
<g clip-path="url(#clip0_30_80)">
<path d="M88.1823 51.8037L87.8936 51.6548C87.3663 51.3849 86.9314 50.963 86.6448 50.4434C86.3582 49.9238 86.2329 49.3301 86.2851 48.7385C86.4716 46.6017 86.4932 44.4537 86.3494 42.3135C86.3059 41.7269 86.436 41.1403 86.7233 40.6275C87.0106 40.1146 87.4424 39.6982 87.9646 39.4304L88.3737 39.2219C88.9548 38.9261 89.4234 38.4475 89.7076 37.8593C89.9919 37.271 90.0762 36.6056 89.9476 35.9647C89.7639 35.0511 89.55 34.1375 89.3058 33.2239C89.126 32.5404 88.9264 31.8635 88.7185 31.1948C88.5181 30.5648 88.1151 30.0193 87.5727 29.6434C87.0304 29.2676 86.3791 29.0827 85.7208 29.1177L85.3645 29.1359C84.7733 29.1698 84.1855 29.0256 83.6766 28.7218C83.1677 28.418 82.761 27.9686 82.5087 27.4312C81.5954 25.4746 80.5302 23.593 79.3229 21.8039C78.9986 21.3176 78.8242 20.7462 78.8216 20.1611C78.819 19.5759 78.9881 19.003 79.308 18.5137L79.5407 18.1562C79.8982 17.6046 80.0647 16.9503 80.0146 16.2943C79.9646 15.6383 79.7006 15.0171 79.2635 14.5266C78.1758 13.3028 77.0231 12.1387 75.8105 11.0394C75.3225 10.5956 74.7021 10.3261 74.0456 10.2729C73.3892 10.2196 72.7336 10.3855 72.1809 10.7448L71.8674 10.9484C71.3761 11.2718 70.8 11.4413 70.2124 11.4351C69.6247 11.4289 69.0522 11.2474 68.5678 10.9136C66.8056 9.69197 64.9518 8.60908 63.0229 7.67463C62.4999 7.41557 62.0646 7.00778 61.7712 6.50212C61.4778 5.99646 61.3393 5.41533 61.373 4.83123L61.3928 4.41746C61.4282 3.76014 61.2464 3.10948 60.8757 2.56636C60.5049 2.02324 59.9659 1.61801 59.3421 1.41351C57.7789 0.894145 56.1889 0.45934 54.5792 0.110972C53.9352 -0.0294963 53.2631 0.0481439 52.6678 0.331744C52.0726 0.615344 51.5878 1.0889 51.2895 1.67832L51.1096 2.02589C50.8444 2.55064 50.4303 2.98487 49.9194 3.27381C49.4085 3.56276 48.8238 3.69349 48.239 3.64951C46.141 3.48535 44.0335 3.48259 41.9351 3.64123C41.3513 3.68275 40.7684 3.55032 40.2594 3.26057C39.7504 2.97083 39.3382 2.53668 39.0743 2.01264L38.8846 1.6386C38.5883 1.05133 38.107 0.578675 37.5154 0.294053C36.9238 0.00943071 36.255 -0.0712201 35.613 0.0646299C34.8585 0.223516 34.1029 0.402815 33.3462 0.602527L33.1812 0.647214C32.3706 0.86789 31.5721 1.10456 30.7857 1.35724C30.1609 1.561 29.6206 1.96577 29.2483 2.50885C28.8761 3.05193 28.6928 3.703 28.7268 4.36119L28.7482 4.77661C28.7801 5.36368 28.6381 5.94709 28.3401 6.45336C28.0421 6.95963 27.6015 7.36613 27.0737 7.62167C25.2169 8.51213 23.43 9.54232 21.7283 10.7034C21.2431 11.0318 20.672 11.2091 20.0867 11.2129C19.5014 11.2167 18.928 11.047 18.4386 10.7249L18.0921 10.5015C17.5408 10.1404 16.8858 9.97234 16.2294 10.0235C15.5729 10.0747 14.9517 10.3423 14.4626 10.7845C13.2064 11.9147 12.0134 13.1137 10.8891 14.376C10.4523 14.8665 10.1881 15.4873 10.1371 16.143C10.0861 16.7987 10.2512 17.4531 10.607 18.0056L10.8314 18.3515C11.1535 18.8442 11.3228 19.4216 11.3178 20.0108C11.3128 20.6 11.1338 21.1745 10.8033 21.6616C9.66676 23.3261 8.65327 25.0719 7.77098 26.885C7.51286 27.4093 7.10662 27.8459 6.6029 28.1402C6.09917 28.4345 5.52025 28.5736 4.93827 28.5401L4.50603 28.5169C3.85176 28.483 3.20451 28.6656 2.6638 29.0367C2.12308 29.4078 1.71886 29.9468 1.51329 30.5708C0.973889 32.1955 0.523914 33.8486 0.165397 35.5228C0.0256025 36.1702 0.103006 36.8457 0.385565 37.4444C0.668124 38.043 1.13999 38.5312 1.72776 38.8329L2.07917 39.0117C2.60249 39.2782 3.03537 39.6943 3.32313 40.2074C3.61089 40.7206 3.74063 41.3078 3.69597 41.8948C3.54385 43.8815 3.53448 45.8766 3.66793 47.8647C3.70535 48.4476 3.5711 49.0288 3.28187 49.5358C2.99265 50.0428 2.56121 50.4534 2.04122 50.7163L1.63702 50.9232C1.05743 51.2183 0.589647 51.6951 0.304697 52.2812C0.0197466 52.8672 -0.0668125 53.5306 0.0581601 54.1705C0.246238 55.0973 0.462911 56.0219 0.708182 56.9444C0.909458 57.6991 1.12943 58.4449 1.3681 59.182C1.60315 59.9236 2.1192 60.543 2.80508 60.9066H10.6251C9.7357 58.9575 9.01162 56.9367 8.4606 54.8656C3.08555 34.6572 15.0994 13.8199 35.2435 8.42769L35.3804 8.39293C55.4833 3.09671 76.1668 15.1373 81.532 35.2977C83.8146 43.8266 83.0446 52.8884 79.3559 60.9066H87.7963C88.0677 60.6076 88.2745 60.2554 88.4034 59.8722C88.933 58.3133 89.3791 56.7271 89.7397 55.1205C89.8839 54.4726 89.809 53.7951 89.5271 53.1946C89.2451 52.5941 88.772 52.1048 88.1823 51.8037Z" fill="#EB5757"/>
<path d="M27.1056 60.9231C25.1282 60.9233 23.1787 60.4548 21.4161 59.5558C19.6534 58.6568 18.1274 57.3527 16.9624 55.7498C15.7974 54.147 15.0264 52.2907 14.7122 50.3322C14.398 48.3737 14.5495 46.3684 15.1543 44.4798C15.7591 42.5912 16.8002 40.8727 18.1927 39.4642C19.5852 38.0558 21.2896 36.9973 23.1672 36.3751C25.0448 35.7528 27.0423 35.5844 28.9971 35.8835C30.9519 36.1827 32.8085 36.9409 34.4158 38.0964C34.6676 38.2777 34.8373 38.5519 34.8876 38.8587C34.9379 39.1655 34.8646 39.4798 34.6839 39.7324C34.5032 39.985 34.2299 40.1553 33.924 40.2057C33.6182 40.2562 33.3049 40.1827 33.0531 40.0014C31.0768 38.5846 28.6612 37.9221 26.2413 38.133C23.8213 38.344 21.5559 39.4147 19.8529 41.1523C18.1499 42.8899 17.121 45.1803 16.9516 47.6111C16.7822 50.042 17.4834 52.4537 18.9288 54.4122C20.3743 56.3706 22.4691 57.747 24.8363 58.2938C27.2034 58.8405 29.6874 58.5216 31.841 57.3945C33.9946 56.2673 35.6764 54.406 36.5837 52.1455C37.4909 49.8851 37.5641 47.374 36.7899 45.0642C36.6933 44.7698 36.7167 44.4491 36.855 44.172C36.9933 43.8949 37.2353 43.6839 37.5281 43.5851C37.8209 43.4863 38.1408 43.5078 38.4179 43.6447C38.695 43.7817 38.9069 44.023 39.0072 44.3161C39.6402 46.2104 39.8151 48.2284 39.5176 50.2039C39.2201 52.1793 38.4587 54.0555 37.2962 55.6776C36.1337 57.2997 34.6034 58.6213 32.8315 59.5333C31.0597 60.4454 29.097 60.9217 27.1056 60.9231Z" fill="#EB5757"/>
<path d="M61.8094 60.923C59.6891 60.922 57.5983 60.4245 55.7034 59.4702C53.8085 58.5159 52.1618 57.1311 50.8943 55.4259C49.6268 53.7208 48.7735 51.7424 48.4023 49.6481C48.0311 47.5539 48.1523 45.4017 48.7562 43.3628C48.8538 43.0767 49.0577 42.8396 49.3254 42.7007C49.5931 42.5618 49.9039 42.5319 50.193 42.6173C50.4822 42.7027 50.7273 42.8967 50.8773 43.1589C51.0273 43.4211 51.0706 43.7313 50.9982 44.0248C50.2199 46.6247 50.399 49.4186 51.5029 51.897C52.6068 54.3754 54.562 56.3732 57.0118 57.5261C59.4616 58.679 62.2428 58.91 64.8483 58.1772C67.4538 57.4444 69.7099 55.7965 71.2052 53.534C72.7005 51.2716 73.3354 48.5453 72.9941 45.8524C72.6527 43.1595 71.3579 40.6794 69.3457 38.8644C67.3335 37.0493 64.7381 36.0204 62.0327 35.965C59.3273 35.9097 56.6922 36.8318 54.608 38.5631C54.367 38.7348 54.0701 38.8086 53.777 38.7697C53.4839 38.7307 53.2164 38.5819 53.0283 38.3531C52.8402 38.1243 52.7454 37.8326 52.763 37.5365C52.7806 37.2405 52.9093 36.9621 53.1232 36.7574C54.8051 35.3565 56.7986 34.3826 58.935 33.9179C61.0714 33.4532 63.288 33.5115 65.3972 34.0878C67.5064 34.6641 69.4463 35.7414 71.0528 37.2287C72.6592 38.716 73.8851 40.5696 74.6266 42.6326C75.3682 44.6956 75.6036 46.9074 75.313 49.081C75.0224 51.2545 74.2143 53.3259 72.9571 55.12C71.6999 56.9141 70.0305 58.378 68.0901 59.3881C66.1498 60.3982 63.9954 60.9247 61.8094 60.923Z" fill="#EB5757"/>
<path d="M29.3661 48.6044C29.1274 48.6044 28.8944 48.5311 28.6983 48.3944C28.5023 48.2577 28.3527 48.0641 28.2695 47.8397C28.1864 47.6152 28.1737 47.3705 28.2332 47.1386C28.2926 46.9067 28.4214 46.6985 28.6022 46.5422L40.009 36.6829L35.2773 35.1553C35.1261 35.1124 34.9851 35.0394 34.8626 34.9406C34.7402 34.8419 34.6388 34.7194 34.5646 34.5804C34.4904 34.4415 34.4448 34.289 34.4306 34.132C34.4164 33.975 34.4339 33.8168 34.4821 33.6667C34.5302 33.5167 34.6079 33.3779 34.7107 33.2586C34.8135 33.1394 34.9391 33.0422 35.0802 32.9727C35.2212 32.9032 35.3748 32.863 35.5317 32.8544C35.6886 32.8458 35.8456 32.869 35.9934 32.9226L44.6911 35.7362L30.1267 48.328C29.9141 48.5082 29.6444 48.6062 29.3661 48.6044Z" fill="#EB5757"/>
<path d="M59.722 44.0894C59.6063 44.0892 59.4912 44.0719 59.3805 44.0381L43.9004 39.3046L52.9578 30.819C53.1865 30.6191 53.4836 30.5161 53.7865 30.5318C54.0894 30.5474 54.3744 30.6805 54.5814 30.903C54.7884 31.1254 54.9011 31.4198 54.8959 31.724C54.8906 32.0283 54.7677 32.3186 54.5532 32.5337L48.4489 38.2453L60.0536 41.7938C60.3208 41.8757 60.5499 42.0509 60.6995 42.2876C60.8491 42.5243 60.9093 42.8069 60.8693 43.0843C60.8292 43.3616 60.6915 43.6155 60.4811 43.7998C60.2706 43.9842 60.0014 44.0869 59.722 44.0894Z" fill="#EB5757"/>
<path d="M28.5988 34.0331C28.3354 34.033 28.0797 33.9437 27.8732 33.7796C27.6667 33.6156 27.5215 33.3865 27.461 33.1293C27.4005 32.8721 27.4282 32.602 27.5398 32.3626C27.6514 32.1232 27.8403 31.9287 28.0758 31.8104C32.1888 29.7565 42.2278 26.4182 49.6206 25.7528C49.7734 25.7395 49.9274 25.7564 50.0737 25.8028C50.22 25.8491 50.3558 25.9239 50.4733 26.0229C50.5908 26.1218 50.6877 26.2431 50.7585 26.3796C50.8293 26.5162 50.8726 26.6654 50.886 26.8187C50.8993 26.972 50.8824 27.1265 50.8362 27.2733C50.79 27.4201 50.7155 27.5563 50.6168 27.6742C50.5181 27.7921 50.3973 27.8893 50.2612 27.9603C50.1251 28.0313 49.9763 28.0748 49.8235 28.0881C42.7128 28.7287 33.0632 31.9378 29.1119 33.9107C28.9526 33.9907 28.7769 34.0326 28.5988 34.0331Z" fill="#EB5757"/>
<path d="M23.2501 31.4811C22.9859 31.4806 22.7296 31.3903 22.523 31.2251C22.3164 31.0598 22.1717 30.8293 22.1124 30.571C22.0531 30.3127 22.0827 30.0418 22.1964 29.8026C22.3101 29.5633 22.5012 29.3697 22.7386 29.2533C31.6723 24.8972 42.0578 23.1941 49.1965 22.5338C49.3494 22.5196 49.5035 22.5358 49.6501 22.5815C49.7967 22.6271 49.9329 22.7012 50.0509 22.7997C50.169 22.8981 50.2665 23.0189 50.338 23.1552C50.4096 23.2914 50.4536 23.4405 50.4677 23.5938C50.4818 23.7472 50.4656 23.9018 50.4201 24.0489C50.3746 24.1959 50.3007 24.3326 50.2026 24.451C50.1045 24.5694 49.9841 24.6673 49.8482 24.739C49.7124 24.8107 49.5638 24.8549 49.411 24.8691C42.467 25.5129 32.3784 27.1613 23.7566 31.3635C23.5986 31.4402 23.4255 31.4803 23.2501 31.4811Z" fill="#EB5757"/>
<path d="M61.215 20.877C60.7347 20.2985 60.1262 19.8405 59.4382 19.5397C58.0837 18.9721 56.7572 18.4639 52.6426 18.3266C51.2124 18.2882 49.7815 18.3691 48.3647 18.5682C48.0765 18.6286 47.8216 18.796 47.6512 19.0369C47.4807 19.2777 47.4072 19.5742 47.4454 19.8671C47.4836 20.16 47.6306 20.4276 47.857 20.6164C48.0834 20.8052 48.3726 20.9012 48.6666 20.8853C50.3966 20.632 52.1505 20.5853 53.8915 20.7463C53.2936 21.4177 52.8936 22.2428 52.736 23.1292C52.5785 24.0155 52.6698 24.9284 52.9996 25.7658C53.3294 26.6032 53.8848 27.3321 54.6037 27.8711C55.3226 28.41 56.1768 28.7379 57.0707 28.818C57.2175 28.8313 57.3644 28.8379 57.5095 28.8379C58.7169 28.8354 59.8797 28.3804 60.77 27.5623C61.6603 26.7442 62.2138 25.6219 62.322 24.4156C62.3797 23.7816 62.3115 23.1425 62.1215 22.5352C61.9315 21.9278 61.6234 21.3642 61.215 20.877ZM59.9925 24.2136C59.9493 24.6983 59.7666 25.1599 59.4665 25.5422C59.1665 25.9246 58.7622 26.2111 58.3027 26.367C57.8432 26.5229 57.3485 26.5414 56.8787 26.4203C56.409 26.2992 55.9844 26.0436 55.6568 25.6848C55.3293 25.326 55.1128 24.8793 55.0337 24.3992C54.9546 23.9192 55.0164 23.4264 55.2115 22.9809C55.4066 22.5354 55.7267 22.1565 56.1326 21.8902C56.5386 21.6239 57.013 21.4818 57.498 21.4811C57.5722 21.4811 57.6481 21.4811 57.724 21.4911C58.3844 21.5512 58.994 21.8715 59.4193 22.3819C59.8446 22.8923 60.0507 23.551 59.9925 24.2136Z" fill="#EB5757"/>
</g>
<path d="M110 0.450012H125.636C131.885 0.450012 136.8 4.93091 136.8 11.8742C136.8 17.6987 133.448 21.0609 129.43 22.4046L137.248 31.8163H126.079L119.382 22.8545V31.8163H110V0.450012ZM124.957 14.5615C125.624 14.4978 126.243 14.1872 126.693 13.6903C127.144 13.1933 127.393 12.5458 127.393 11.8742C127.393 11.2025 127.144 10.555 126.693 10.0581C126.243 9.56118 125.624 9.25054 124.957 9.18686H119.382V14.5615H124.957Z" fill="#EB5757"/>
<path d="M140.599 16.13C140.599 6.72438 147.266 0 156.005 0C164.744 0 171.417 6.72438 171.417 16.13C171.417 25.5356 164.714 32.26 156.005 32.26C147.296 32.26 140.599 25.5417 140.599 16.13ZM162.035 16.13C162.035 11.8741 159.357 9.18675 155.975 9.18675C152.593 9.18675 149.914 11.8741 149.914 16.13C149.914 20.3859 152.593 23.0793 155.975 23.0793C159.357 23.0793 162.035 20.3859 162.035 16.13Z" fill="#EB5757"/>
<path d="M176.102 18.3736V0.450012H185.483V18.3736C185.483 21.2859 187.271 23.0794 189.726 23.0794C192.18 23.0794 193.968 21.2859 193.968 18.3736V0.450012H203.344V18.3736C203.344 26.8855 197.986 32.2601 189.72 32.2601C181.453 32.2601 176.102 26.8855 176.102 18.3736Z" fill="#EB5757"/>
<path d="M209.156 0.450012H219.653L226.58 14.1177H227.471V0.450012H236.853V31.8163H226.356L219.435 18.1669H218.538V31.8345H209.156V0.450012Z" fill="#EB5757"/>
<path d="M242.883 0.450012H254.938C263.877 0.450012 270.574 7.16832 270.574 16.1301C270.574 25.0919 263.907 31.8163 254.938 31.8163H242.883V0.450012ZM255.162 22.6295C258.514 22.6295 261.223 19.9422 261.223 16.1301C261.223 12.318 258.544 9.63677 255.162 9.63677H252.259V22.6295H255.162Z" fill="#EB5757"/>
<path d="M289.557 0.450012H305.193C311.442 0.450012 316.357 4.93091 316.357 11.8742C316.357 17.6987 313.005 21.0609 308.987 22.4046L316.805 31.8163H305.636L298.939 22.8545V31.8163H289.557V0.450012ZM304.521 14.5615C305.187 14.4978 305.806 14.1872 306.256 13.6903C306.707 13.1933 306.956 12.5458 306.956 11.8742C306.956 11.2025 306.707 10.555 306.256 10.0581C305.806 9.56118 305.187 9.25054 304.521 9.18686H298.939V14.5615H304.521Z" fill="#EB5757"/>
<path d="M320.156 16.13C320.156 6.72438 326.853 0 335.562 0C344.271 0 350.974 6.72438 350.974 16.13C350.974 25.5356 344.271 32.26 335.562 32.26C326.853 32.26 320.156 25.5417 320.156 16.13ZM341.592 16.13C341.592 11.8741 338.914 9.18675 335.562 9.18675C332.211 9.18675 329.532 11.8741 329.532 16.13C329.532 20.3859 332.211 23.0793 335.562 23.0793C338.914 23.0793 341.592 20.3859 341.592 16.13Z" fill="#EB5757"/>
<path d="M354.769 16.13C354.769 6.72438 361.472 0 370.181 0C378.223 0 383.805 5.59959 384.92 13.2177H375.539C375.235 12.0352 374.539 10.9917 373.565 10.259C372.591 9.52631 371.398 9.14814 370.181 9.18676C366.83 9.18676 364.151 11.8741 364.151 16.13C364.151 20.386 366.83 23.0793 370.181 23.0793C373.084 23.0793 374.872 21.2858 375.539 18.8234H384.92C383.805 26.6665 378.223 32.2661 370.181 32.2661C361.472 32.26 354.769 25.5417 354.769 16.13Z" fill="#EB5757"/>
<path d="M389.834 0.450012H399.21V13.2178L405.913 0.450012H416.634L408.15 15.9052L417.531 31.8163H406.804L399.21 18.3736V31.8163H389.834V0.450012Z" fill="#EB5757"/>
<path d="M110 46.0022H115.873C116.392 45.9844 116.91 46.074 117.394 46.2654C117.878 46.4568 118.317 46.7459 118.685 47.1148C119.053 47.4836 119.341 47.9244 119.532 48.4097C119.722 48.8951 119.812 49.4145 119.794 49.9359C119.826 50.5803 119.68 51.2211 119.37 51.7868C119.061 52.3526 118.601 52.821 118.042 53.14V53.2434C118.665 53.5304 119.185 54.0005 119.535 54.5912C119.884 55.182 120.047 55.8654 120 56.5509C120.018 57.072 119.928 57.5912 119.738 58.0762C119.547 58.5612 119.258 59.0016 118.891 59.37C118.523 59.7384 118.083 60.027 117.6 60.2177C117.116 60.4084 116.598 60.4971 116.079 60.4785H110.018L110 46.0022ZM115.873 52.6232C116.236 52.6406 116.598 52.5838 116.939 52.4564C117.279 52.329 117.59 52.1336 117.853 51.8821C118.116 51.6306 118.325 51.3281 118.468 50.9931C118.611 50.658 118.685 50.2973 118.685 49.9329C118.685 49.5684 118.611 49.2077 118.468 48.8727C118.325 48.5376 118.116 48.2352 117.853 47.9837C117.59 47.7321 117.279 47.5368 116.939 47.4094C116.598 47.282 116.236 47.2252 115.873 47.2425H111.236V52.6232H115.873ZM116.079 59.2382C116.434 59.25 116.788 59.1886 117.119 59.0578C117.449 58.927 117.75 58.7296 118.001 58.4777C118.253 58.2259 118.45 57.925 118.581 57.5935C118.713 57.2621 118.775 56.9073 118.764 56.5509C118.792 56.1902 118.742 55.8276 118.617 55.4882C118.492 55.1489 118.295 54.8408 118.04 54.5852C117.784 54.3297 117.477 54.1328 117.138 54.0082C116.8 53.8836 116.438 53.8342 116.079 53.8635H111.23V59.2382H116.079Z" fill="#EB5757"/>
<path d="M135.008 46H136.22V60.4763H135.008V46Z" fill="#EB5757"/>
<path d="M151.22 53.4479C151.22 48.9974 154.208 46 158.02 46C159.452 46.0107 160.841 46.4923 161.974 47.3709C163.107 48.2494 163.921 49.4765 164.292 50.8639H162.953C162.619 49.8091 161.961 48.8877 161.072 48.2321C160.184 47.5766 159.111 47.2208 158.008 47.216C154.917 47.216 152.444 49.6966 152.444 53.4236C152.444 57.1506 154.917 59.6251 158.008 59.6251C159.121 59.6212 160.204 59.257 161.095 58.5867C161.986 57.9164 162.637 56.9756 162.953 55.9042H164.292C163.931 57.3077 163.121 58.5534 161.985 59.4497C160.85 60.3461 159.452 60.8435 158.008 60.8654C154.208 60.8897 151.22 57.8923 151.22 53.4479Z" fill="#EB5757"/>
<path d="M184.65 55.0408L179.292 46H180.674L185.08 53.4479H185.492L189.886 46H191.268L185.905 55.0408V60.4763H184.692L184.65 55.0408Z" fill="#EB5757"/>
<path d="M206.268 53.4479C206.268 48.9974 209.256 46 213.068 46C214.503 46.0068 215.896 46.4865 217.033 47.3653C218.17 48.2442 218.987 49.4735 219.359 50.8639H218.02C217.685 49.8087 217.025 48.887 216.136 48.2315C215.246 47.576 214.172 47.2205 213.068 47.216C209.977 47.216 207.504 49.6966 207.504 53.4236C207.504 57.1506 209.977 59.6251 213.068 59.6251C214.183 59.6225 215.267 59.2589 216.159 58.5885C217.051 57.9181 217.704 56.9766 218.02 55.9042H219.359C218.997 57.3082 218.185 58.554 217.048 59.4503C215.912 60.3466 214.513 60.8438 213.068 60.8654C209.256 60.8897 206.268 57.8923 206.268 53.4479Z" fill="#EB5757"/>
<path d="M234.359 46H235.571V59.2359H242.995V60.4519H234.359V46Z" fill="#EB5757"/>
<path d="M258.013 46H267.104V47.216H259.25V52.5967H266.674V53.8127H259.25V59.1873H267.086V60.4033H257.995L258.013 46Z" fill="#EB5757"/>
<path d="M290 46H295.976C298.448 46 300.218 47.7571 300.218 50.3471C300.218 53.0344 298.364 54.7915 295.976 54.7915H294.533L300.509 60.4763H298.861L292.885 54.7915H291.236V60.4763H290.024L290 46ZM295.976 53.5513C297.727 53.5513 298.964 52.3353 298.964 50.3471C298.992 49.9411 298.935 49.5337 298.796 49.1513C298.657 48.7689 298.44 48.4199 298.159 48.127C297.877 47.8341 297.537 47.6039 297.161 47.4511C296.785 47.2984 296.381 47.2265 295.976 47.2403H291.236V53.5513H295.976Z" fill="#EB5757"/>
<path d="M315.527 46H324.618V47.216H316.764V52.5967H324.188V53.8127H316.764V59.1873H324.6V60.4033H315.509L315.527 46Z" fill="#EB5757"/>
<path d="M339.618 46H345.594C346.168 45.9994 346.736 46.1156 347.263 46.3415C347.791 46.5675 348.268 46.8985 348.664 47.3145C349.061 47.7306 349.369 48.223 349.571 48.762C349.772 49.301 349.863 49.8755 349.836 50.4505C349.871 51.0223 349.785 51.595 349.585 52.1316C349.385 52.6682 349.075 53.1568 348.676 53.5658C348.276 53.9749 347.795 54.2953 347.264 54.5065C346.734 54.7176 346.164 54.8147 345.594 54.7916H340.855V60.4763H339.642L339.618 46ZM345.594 53.5513C345.999 53.5658 346.403 53.4948 346.78 53.3428C347.156 53.1908 347.496 52.9612 347.778 52.6689C348.061 52.3766 348.278 52.0281 348.418 51.646C348.557 51.2638 348.615 50.8565 348.588 50.4505C348.588 48.4806 347.345 47.2403 345.594 47.2403H340.855V53.5513H345.594Z" fill="#EB5757"/>
<path d="M370.28 46H372.135L377.589 60.4763H376.377L374.892 56.5486H367.541L366.056 60.4763H364.844L370.28 46ZM374.407 55.3083L371.413 47.3437H371.001L368.013 55.3083H374.407Z" fill="#EB5757"/>
<path d="M392.589 46H393.801V60.4763H392.589V46Z" fill="#EB5757"/>
<path d="M408.801 46H414.777C417.25 46 419.019 47.7571 419.019 50.3471C419.019 53.0344 417.165 54.7915 414.777 54.7915H413.335L419.31 60.4763H417.686L411.71 54.7915H410.062V60.4763H408.85L408.801 46ZM414.777 53.5513C416.529 53.5513 417.765 52.3353 417.765 50.3471C417.793 49.9411 417.736 49.5337 417.597 49.1513C417.459 48.7689 417.241 48.4199 416.96 48.127C416.678 47.8341 416.338 47.6039 415.962 47.4511C415.586 47.2984 415.182 47.2265 414.777 47.2403H410.038V53.5513H414.777Z" fill="#EB5757"/>
<defs>
<clipPath id="clip0_30_80">
<rect width="90" height="61" fill="white"/>
</clipPath>
</defs>
</svg>
